 <svg class="hero-symbol" viewBox="0 0 100 100" fill="none" xmlns="http://www.w3.org/2000/svg">

  <!-- ── ANNULAR RING ──────────────────────────────────────────── -->
  <!-- evenodd fill-rule = outer circle MINUS inner circle = donut -->
  <!-- outer r=25.78  inner r=18.75  (center: 50,50)              -->
  <path fill="#C9A84C" fill-rule="evenodd" d="M 75.78,50
       A 25.78,25.78 0 1,0 24.22,50
       A 25.78,25.78 0 1,0 75.78,50 Z
       M 68.75,50
       A 18.75,18.75 0 1,1 31.25,50
       A 18.75,18.75 0 1,1 68.75,50 Z"/>

  <!-- ── RAY 1 — 25° ──────────────────────────────────────────── -->
  <path fill="#C9A84C" d="M 71.75,66.57 C 72.11,67.12 72.65,68.44 73.54,69.34 C 74.43,70.24 74.9,70.66 76.18,71.05 C 77.46,71.44 78.45,71.19 79.93,71.27 C 81.41,71.35 82.05,71.54 83.57,71.47 C 85.09,71.4 85.77,71.58 87.54,70.9 C 89.31,70.22 90.87,69.24 92.4,68.08 C 93.93,66.92 94.44,66.07 95.19,65.12 C 95.94,64.17 95.94,64.09 96.16,63.32 C 96.38,62.55 96.52,62.02 96.3,61.29 C 96.08,60.56 96.07,60.18 95.07,59.66 C 94.07,59.14 92.51,58.92 91.28,58.7 C 90.05,58.48 90.36,57.55 88.91,58.56 C 87.46,59.57 85.68,62.76 84.05,63.76 C 82.42,64.76 82.0,63.79 80.74,63.56 C 79.48,63.33 78.71,63.58 77.75,62.59 C 76.79,61.6 76.32,59.39 75.96,58.59 A 20.14,20.14 0 0,1 71.75,66.57 Z"/>
  <!-- ── RAY 2 — 70° ──────────────────────────────────────────── -->
  <path fill="#C9A84C" d="M 53.66,77.1 C 53.52,77.74 52.98,79.06 52.97,80.32 C 52.96,81.58 53.0,82.22 53.63,83.4 C 54.26,84.58 55.13,85.1 56.12,86.2 C 57.11,87.3 57.43,87.89 58.56,88.91 C 59.69,89.93 60.04,90.55 61.77,91.32 C 63.5,92.09 65.29,92.5 67.19,92.77 C 69.09,93.04 70.05,92.79 71.26,92.65 C 72.47,92.51 72.52,92.45 73.22,92.06 C 73.92,91.67 74.4,91.39 74.76,90.72 C 75.12,90.05 75.38,89.78 75.04,88.7 C 74.7,87.62 73.75,86.37 73.04,85.34 C 72.33,84.31 73.21,83.88 71.47,83.57 C 69.73,83.26 66.21,84.25 64.35,83.8 C 62.49,83.35 62.88,82.38 62.15,81.32 C 61.42,80.26 60.69,79.9 60.72,78.52 C 60.75,77.14 61.98,75.25 62.29,74.43 A 20.14,20.14 0 0,1 53.66,77.1 Z"/>
  <!-- ── RAY 3 — 115° ─────────────────────────────────────────── -->
  <path fill="#C9A84C" d="M 33.43,71.75 C 32.88,72.11 31.56,72.65 30.66,73.54 C 29.76,74.43 29.34,74.9 28.95,76.18 C 28.56,77.46 28.81,78.45 28.73,79.93 C 28.65,81.41 28.46,82.05 28.53,83.57 C 28.6,85.09 28.42,85.77 29.1,87.54 C 29.78,89.31 30.76,90.87 31.92,92.4 C 33.08,93.93 33.93,94.44 34.88,95.19 C 35.83,95.94 35.91,95.94 36.68,96.16 C 37.45,96.38 37.98,96.52 38.71,96.3 C 39.44,96.08 39.82,96.07 40.34,95.07 C 40.86,94.07 41.08,92.51 41.3,91.28 C 41.52,90.05 42.45,90.36 41.44,88.91 C 40.43,87.46 37.24,85.68 36.24,84.05 C 35.24,82.42 36.21,82.0 36.44,80.74 C 36.67,79.48 36.42,78.71 37.41,77.75 C 38.4,76.79 40.61,76.32 41.41,75.96 A 20.14,20.14 0 0,1 33.43,71.75 Z"/>
  <!-- ── RAY 4 — 160° ─────────────────────────────────────────── -->
  <path fill="#C9A84C" d="M 22.9,53.66 C 22.26,53.52 20.94,52.98 19.68,52.97 C 18.42,52.96 17.78,53.0 16.6,53.63 C 15.42,54.26 14.9,55.13 13.8,56.12 C 12.7,57.11 12.11,57.43 11.09,58.56 C 10.07,59.69 9.45,60.04 8.68,61.77 C 7.91,63.5 7.5,65.29 7.23,67.19 C 6.96,69.09 7.21,70.05 7.35,71.26 C 7.49,72.47 7.55,72.52 7.94,73.22 C 8.33,73.92 8.61,74.4 9.28,74.76 C 9.95,75.12 10.22,75.38 11.3,75.04 C 12.38,74.7 13.63,73.75 14.66,73.04 C 15.69,72.33 16.12,73.21 16.43,71.47 C 16.74,69.73 15.75,66.21 16.2,64.35 C 16.65,62.49 17.62,62.88 18.68,62.15 C 19.74,61.42 20.1,60.69 21.48,60.72 C 22.86,60.75 24.75,61.98 25.57,62.29 A 20.14,20.14 0 0,1 22.9,53.66 Z"/>
  <!-- ── RAY 5 — 205° ─────────────────────────────────────────── -->
  <path fill="#C9A84C" d="M 28.25,33.43 C 27.89,32.88 27.35,31.56 26.46,30.66 C 25.57,29.76 25.1,29.34 23.82,28.95 C 22.54,28.56 21.55,28.81 20.07,28.73 C 18.59,28.65 17.95,28.46 16.43,28.53 C 14.91,28.6 14.23,28.42 12.46,29.1 C 10.69,29.78 9.13,30.76 7.6,31.92 C 6.07,33.08 5.56,33.93 4.81,34.88 C 4.06,35.83 4.06,35.91 3.84,36.68 C 3.62,37.45 3.48,37.98 3.7,38.71 C 3.92,39.44 3.93,39.82 4.93,40.34 C 5.93,40.86 7.49,41.08 8.72,41.3 C 9.95,41.52 9.64,42.45 11.09,41.44 C 12.54,40.43 14.32,37.24 15.95,36.24 C 17.58,35.24 18.0,36.21 19.26,36.44 C 20.52,36.67 21.29,36.42 22.25,37.41 C 23.21,38.4 23.68,40.61 24.04,41.41 A 20.14,20.14 0 0,1 28.25,33.43 Z"/>
  <!-- ── RAY 6 — 250° ─────────────────────────────────────────── -->
  <path fill="#C9A84C" d="M 46.34,22.9 C 46.48,22.26 47.02,20.94 47.03,19.68 C 47.04,18.42 47.0,17.78 46.37,16.6 C 45.74,15.42 44.87,14.9 43.88,13.8 C 42.89,12.7 42.57,12.11 41.44,11.09 C 40.31,10.07 39.96,9.45 38.23,8.68 C 36.5,7.91 34.71,7.5 32.81,7.23 C 30.91,6.96 29.95,7.21 28.74,7.35 C 27.53,7.49 27.48,7.55 26.78,7.94 C 26.08,8.33 25.6,8.61 25.24,9.28 C 24.88,9.95 24.62,10.22 24.96,11.3 C 25.3,12.38 26.25,13.63 26.96,14.66 C 27.67,15.69 26.79,16.12 28.53,16.43 C 30.27,16.74 33.79,15.75 35.65,16.2 C 37.51,16.65 37.12,17.62 37.85,18.68 C 38.58,19.74 39.31,20.1 39.28,21.48 C 39.25,22.86 38.02,24.75 37.71,25.57 A 20.14,20.14 0 0,1 46.34,22.9 Z"/>
  <!-- ── RAY 7 — 295° ─────────────────────────────────────────── -->
  <path fill="#C9A84C" d="M 66.57,28.25 C 67.12,27.89 68.44,27.35 69.34,26.46 C 70.24,25.57 70.66,25.1 71.05,23.82 C 71.44,22.54 71.19,21.55 71.27,20.07 C 71.35,18.59 71.54,17.95 71.47,16.43 C 71.4,14.91 71.58,14.23 70.9,12.46 C 70.22,10.69 69.24,9.13 68.08,7.6 C 66.92,6.07 66.07,5.56 65.12,4.81 C 64.17,4.06 64.09,4.06 63.32,3.84 C 62.55,3.62 62.02,3.48 61.29,3.7 C 60.56,3.92 60.18,3.93 59.66,4.93 C 59.14,5.93 58.92,7.49 58.7,8.72 C 58.48,9.95 57.55,9.64 58.56,11.09 C 59.57,12.54 62.76,14.32 63.76,15.95 C 64.76,17.58 63.79,18.0 63.56,19.26 C 63.33,20.52 63.58,21.29 62.59,22.25 C 61.6,23.21 59.39,23.68 58.59,24.04 A 20.14,20.14 0 0,1 66.57,28.25 Z"/>
  <!-- ── RAY 8 — 340° ─────────────────────────────────────────── -->
  <path fill="#C9A84C" d="M 77.1,46.34 C 77.74,46.48 79.06,47.02 80.32,47.03 C 81.58,47.04 82.22,47.0 83.4,46.37 C 84.58,45.74 85.1,44.87 86.2,43.88 C 87.3,42.89 87.89,42.57 88.91,41.44 C 89.93,40.31 90.55,39.96 91.32,38.23 C 92.09,36.5 92.5,34.71 92.77,32.81 C 93.04,30.91 92.79,29.95 92.65,28.74 C 92.51,27.53 92.45,27.48 92.06,26.78 C 91.67,26.08 91.39,25.6 90.72,25.24 C 90.05,24.88 89.78,24.62 88.7,24.96 C 87.62,25.3 86.37,26.25 85.34,26.96 C 84.31,27.67 83.88,26.79 83.57,28.53 C 83.26,30.27 84.25,33.79 83.8,35.65 C 83.35,37.51 82.38,37.12 81.32,37.85 C 80.26,38.58 79.9,39.31 78.52,39.28 C 77.14,39.25 75.25,38.02 74.43,37.71 A 20.14,20.14 0 0,1 77.1,46.34 Z"/>
</svg>
    <span class="nav-logo-text">real<strong>gold</strong></span>



    <svg class="hero-symbol" viewBox="0 0 100 100" fill="none" xmlns="http://www.w3.org/2000/svg">

  <!-- ── ANNULAR RING ──────────────────────────────────────────── -->
  <!-- evenodd fill-rule = outer circle MINUS inner circle = donut -->
  <!-- outer r=25.78  inner r=18.75  (center: 50,50)              -->
  <path fill="#C9A84C" fill-rule="evenodd" d="M 75.78,50
       A 25.78,25.78 0 1,0 24.22,50
       A 25.78,25.78 0 1,0 75.78,50 Z
       M 68.75,50
       A 18.75,18.75 0 1,1 31.25,50
       A 18.75,18.75 0 1,1 68.75,50 Z"/>

  <!-- ── RAY 1 — 25° ──────────────────────────────────────────── -->
  <path fill="#C9A84C" d="M 71.75,66.57 C 72.11,67.12 72.65,68.44 73.54,69.34 C 74.43,70.24 74.9,70.66 76.18,71.05 C 77.46,71.44 78.45,71.19 79.93,71.27 C 81.41,71.35 82.05,71.54 83.57,71.47 C 85.09,71.4 85.77,71.58 87.54,70.9 C 89.31,70.22 90.87,69.24 92.4,68.08 C 93.93,66.92 94.44,66.07 95.19,65.12 C 95.94,64.17 95.94,64.09 96.16,63.32 C 96.38,62.55 96.52,62.02 96.3,61.29 C 96.08,60.56 96.07,60.18 95.07,59.66 C 94.07,59.14 92.51,58.92 91.28,58.7 C 90.05,58.48 90.36,57.55 88.91,58.56 C 87.46,59.57 85.68,62.76 84.05,63.76 C 82.42,64.76 82.0,63.79 80.74,63.56 C 79.48,63.33 78.71,63.58 77.75,62.59 C 76.79,61.6 76.32,59.39 75.96,58.59 A 20.14,20.14 0 0,1 71.75,66.57 Z"/>
  <!-- ── RAY 2 — 70° ──────────────────────────────────────────── -->
  <path fill="#C9A84C" d="M 53.66,77.1 C 53.52,77.74 52.98,79.06 52.97,80.32 C 52.96,81.58 53.0,82.22 53.63,83.4 C 54.26,84.58 55.13,85.1 56.12,86.2 C 57.11,87.3 57.43,87.89 58.56,88.91 C 59.69,89.93 60.04,90.55 61.77,91.32 C 63.5,92.09 65.29,92.5 67.19,92.77 C 69.09,93.04 70.05,92.79 71.26,92.65 C 72.47,92.51 72.52,92.45 73.22,92.06 C 73.92,91.67 74.4,91.39 74.76,90.72 C 75.12,90.05 75.38,89.78 75.04,88.7 C 74.7,87.62 73.75,86.37 73.04,85.34 C 72.33,84.31 73.21,83.88 71.47,83.57 C 69.73,83.26 66.21,84.25 64.35,83.8 C 62.49,83.35 62.88,82.38 62.15,81.32 C 61.42,80.26 60.69,79.9 60.72,78.52 C 60.75,77.14 61.98,75.25 62.29,74.43 A 20.14,20.14 0 0,1 53.66,77.1 Z"/>
  <!-- ── RAY 3 — 115° ─────────────────────────────────────────── -->
  <path fill="#C9A84C" d="M 33.43,71.75 C 32.88,72.11 31.56,72.65 30.66,73.54 C 29.76,74.43 29.34,74.9 28.95,76.18 C 28.56,77.46 28.81,78.45 28.73,79.93 C 28.65,81.41 28.46,82.05 28.53,83.57 C 28.6,85.09 28.42,85.77 29.1,87.54 C 29.78,89.31 30.76,90.87 31.92,92.4 C 33.08,93.93 33.93,94.44 34.88,95.19 C 35.83,95.94 35.91,95.94 36.68,96.16 C 37.45,96.38 37.98,96.52 38.71,96.3 C 39.44,96.08 39.82,96.07 40.34,95.07 C 40.86,94.07 41.08,92.51 41.3,91.28 C 41.52,90.05 42.45,90.36 41.44,88.91 C 40.43,87.46 37.24,85.68 36.24,84.05 C 35.24,82.42 36.21,82.0 36.44,80.74 C 36.67,79.48 36.42,78.71 37.41,77.75 C 38.4,76.79 40.61,76.32 41.41,75.96 A 20.14,20.14 0 0,1 33.43,71.75 Z"/>
  <!-- ── RAY 4 — 160° ─────────────────────────────────────────── -->
  <path fill="#C9A84C" d="M 22.9,53.66 C 22.26,53.52 20.94,52.98 19.68,52.97 C 18.42,52.96 17.78,53.0 16.6,53.63 C 15.42,54.26 14.9,55.13 13.8,56.12 C 12.7,57.11 12.11,57.43 11.09,58.56 C 10.07,59.69 9.45,60.04 8.68,61.77 C 7.91,63.5 7.5,65.29 7.23,67.19 C 6.96,69.09 7.21,70.05 7.35,71.26 C 7.49,72.47 7.55,72.52 7.94,73.22 C 8.33,73.92 8.61,74.4 9.28,74.76 C 9.95,75.12 10.22,75.38 11.3,75.04 C 12.38,74.7 13.63,73.75 14.66,73.04 C 15.69,72.33 16.12,73.21 16.43,71.47 C 16.74,69.73 15.75,66.21 16.2,64.35 C 16.65,62.49 17.62,62.88 18.68,62.15 C 19.74,61.42 20.1,60.69 21.48,60.72 C 22.86,60.75 24.75,61.98 25.57,62.29 A 20.14,20.14 0 0,1 22.9,53.66 Z"/>
  <!-- ── RAY 5 — 205° ─────────────────────────────────────────── -->
  <path fill="#C9A84C" d="M 28.25,33.43 C 27.89,32.88 27.35,31.56 26.46,30.66 C 25.57,29.76 25.1,29.34 23.82,28.95 C 22.54,28.56 21.55,28.81 20.07,28.73 C 18.59,28.65 17.95,28.46 16.43,28.53 C 14.91,28.6 14.23,28.42 12.46,29.1 C 10.69,29.78 9.13,30.76 7.6,31.92 C 6.07,33.08 5.56,33.93 4.81,34.88 C 4.06,35.83 4.06,35.91 3.84,36.68 C 3.62,37.45 3.48,37.98 3.7,38.71 C 3.92,39.44 3.93,39.82 4.93,40.34 C 5.93,40.86 7.49,41.08 8.72,41.3 C 9.95,41.52 9.64,42.45 11.09,41.44 C 12.54,40.43 14.32,37.24 15.95,36.24 C 17.58,35.24 18.0,36.21 19.26,36.44 C 20.52,36.67 21.29,36.42 22.25,37.41 C 23.21,38.4 23.68,40.61 24.04,41.41 A 20.14,20.14 0 0,1 28.25,33.43 Z"/>
  <!-- ── RAY 6 — 250° ─────────────────────────────────────────── -->
  <path fill="#C9A84C" d="M 46.34,22.9 C 46.48,22.26 47.02,20.94 47.03,19.68 C 47.04,18.42 47.0,17.78 46.37,16.6 C 45.74,15.42 44.87,14.9 43.88,13.8 C 42.89,12.7 42.57,12.11 41.44,11.09 C 40.31,10.07 39.96,9.45 38.23,8.68 C 36.5,7.91 34.71,7.5 32.81,7.23 C 30.91,6.96 29.95,7.21 28.74,7.35 C 27.53,7.49 27.48,7.55 26.78,7.94 C 26.08,8.33 25.6,8.61 25.24,9.28 C 24.88,9.95 24.62,10.22 24.96,11.3 C 25.3,12.38 26.25,13.63 26.96,14.66 C 27.67,15.69 26.79,16.12 28.53,16.43 C 30.27,16.74 33.79,15.75 35.65,16.2 C 37.51,16.65 37.12,17.62 37.85,18.68 C 38.58,19.74 39.31,20.1 39.28,21.48 C 39.25,22.86 38.02,24.75 37.71,25.57 A 20.14,20.14 0 0,1 46.34,22.9 Z"/>
  <!-- ── RAY 7 — 295° ─────────────────────────────────────────── -->
  <path fill="#C9A84C" d="M 66.57,28.25 C 67.12,27.89 68.44,27.35 69.34,26.46 C 70.24,25.57 70.66,25.1 71.05,23.82 C 71.44,22.54 71.19,21.55 71.27,20.07 C 71.35,18.59 71.54,17.95 71.47,16.43 C 71.4,14.91 71.58,14.23 70.9,12.46 C 70.22,10.69 69.24,9.13 68.08,7.6 C 66.92,6.07 66.07,5.56 65.12,4.81 C 64.17,4.06 64.09,4.06 63.32,3.84 C 62.55,3.62 62.02,3.48 61.29,3.7 C 60.56,3.92 60.18,3.93 59.66,4.93 C 59.14,5.93 58.92,7.49 58.7,8.72 C 58.48,9.95 57.55,9.64 58.56,11.09 C 59.57,12.54 62.76,14.32 63.76,15.95 C 64.76,17.58 63.79,18.0 63.56,19.26 C 63.33,20.52 63.58,21.29 62.59,22.25 C 61.6,23.21 59.39,23.68 58.59,24.04 A 20.14,20.14 0 0,1 66.57,28.25 Z"/>
  <!-- ── RAY 8 — 340° ─────────────────────────────────────────── -->
  <path fill="#C9A84C" d="M 77.1,46.34 C 77.74,46.48 79.06,47.02 80.32,47.03 C 81.58,47.04 82.22,47.0 83.4,46.37 C 84.58,45.74 85.1,44.87 86.2,43.88 C 87.3,42.89 87.89,42.57 88.91,41.44 C 89.93,40.31 90.55,39.96 91.32,38.23 C 92.09,36.5 92.5,34.71 92.77,32.81 C 93.04,30.91 92.79,29.95 92.65,28.74 C 92.51,27.53 92.45,27.48 92.06,26.78 C 91.67,26.08 91.39,25.6 90.72,25.24 C 90.05,24.88 89.78,24.62 88.7,24.96 C 87.62,25.3 86.37,26.25 85.34,26.96 C 84.31,27.67 83.88,26.79 83.57,28.53 C 83.26,30.27 84.25,33.79 83.8,35.65 C 83.35,37.51 82.38,37.12 81.32,37.85 C 80.26,38.58 79.9,39.31 78.52,39.28 C 77.14,39.25 75.25,38.02 74.43,37.71 A 20.14,20.14 0 0,1 77.1,46.34 Z"/>
</svg>